<svg xmlns="http://www.w3.org/2000/svg" viewBox="0 0 128 128" role="img" aria-label="Neuro exam icon">
  <rect width="128" height="128" rx="24" fill="#090a0c"/>
  <path d="M64 18c-20 0-36 15-36 34 0 9 4 17 10 23v16c0 11 9 19 19 19h14c10 0 19-8 19-19V75c6-6 10-14 10-23 0-19-16-34-36-34Z" fill="#1a1511" stroke="#ff8a2b" stroke-width="6"/>
  <path d="M45 55h38M45 73h38M55 37v54M73 37v54" stroke="#ffb15f" stroke-width="6" stroke-linecap="round"/>
  <circle cx="48" cy="53" r="5" fill="#ff8a2b"/>
  <circle cx="80" cy="53" r="5" fill="#ff8a2b"/>
</svg>
